<svg
    height="100%"
    style="fill-rule:evenodd;clip-rule:evenodd;stroke-linejoin:round;stroke-miterlimit:1.41421;"
    version="1.1"
    viewBox="0 0 1200 200"
    width="100%"
    xml:space="preserve"
    xmlns:xlink="http://www.w3.org/1999/xlink"
    xmlns="http://www.w3.org/2000/svg">
    <g id="Layer1">

        <path class="wordmark-path wordmark-path-1"
        d="M74.899,111.94c9.295,-2.704 22.815,-9.295 22.815,-25.35c0,-7.774 -3.549,-15.21 -9.464,-19.266c-5.239,-3.718 -12.675,-5.746 -25.35,-5.746l-43.433,0l0,4.732c13.52,1.014 14.196,2.028 14.196,16.055l0,68.276c0,14.027 -1.014,15.041 -15.548,16.055l0,4.732l37.349,0c13.351,0 24.505,-2.028 33.124,-6.76c9.971,-5.408 16.055,-14.196 16.055,-25.519c0,-16.9 -13.013,-24.336 -29.744,-26.871l0,-0.338ZM48.028,110.25l0,-33.124c0,-5.577 0.507,-7.436 2.197,-8.45c1.521,-1.014 5.408,-1.69 9.464,-1.69c16.055,0 22.477,10.14 22.477,21.632c0,14.196 -7.774,21.632 -26.195,21.632l-7.943,0ZM48.028,115.996l7.605,0c20.618,0 32.448,7.605 32.448,24.843c0,17.745 -12.337,24.674 -26.026,24.843c-10.985,0 -14.027,-3.211 -14.027,-15.379l0,-34.307Z"/>

        <path class="wordmark-path wordmark-path-2"
        d="M156.019,90.815c-18.928,0 -42.588,13.013 -42.588,42.926c0,19.942 15.379,39.884 42.419,39.884c20.449,0 41.912,-14.196 41.912,-42.25c0,-22.984 -17.069,-40.56 -41.743,-40.56ZM154.16,96.223c17.576,0 27.716,19.266 27.716,38.532c0,24.336 -11.492,33.631 -24.336,33.631c-16.562,0 -28.223,-15.886 -28.223,-38.532c0,-22.308 11.999,-33.631 24.843,-33.631Z"/>

        <path class="wordmark-path wordmark-path-3"
        d="M324.85,93.012l-29.913,0l0,4.563l4.225,0.676c5.915,1.014 6.76,2.197 5.239,8.281c-2.535,10.985 -8.957,31.434 -13.351,44.278l-0.338,0l-21.632,-55.77l-4.394,0l-19.942,56.277l-0.338,0l-14.196,-45.292c-1.859,-6.084 -1.014,-6.591 4.394,-7.774l3.718,-0.676l0,-4.563l-34.138,0l0,4.563c7.943,1.014 9.971,2.028 13.182,12.168l20.28,63.375l4.563,0l20.787,-55.263l0.338,0l21.463,55.263l4.901,0c10.14,-32.279 18.252,-55.601 21.463,-64.389c3.38,-8.619 4.563,-9.971 13.689,-11.154l0,-4.563Z"/>

        <path class="wordmark-path wordmark-path-4"
        d="M331.103,93.012l0,4.563c10.309,0.845 11.323,1.521 11.323,14.027l0,41.574c0,11.83 -1.014,12.844 -12.337,13.689l0,4.563l33.8,0c27.716,0 51.038,-13.013 51.038,-41.912c0,-11.154 -4.394,-20.28 -10.478,-25.857c-8.45,-7.774 -20.956,-10.647 -35.49,-10.647l-37.856,0ZM356.115,108.391c0,-4.563 0.507,-6.76 1.521,-7.774c1.014,-1.352 4.394,-2.197 9.295,-2.197c18.59,0 32.11,8.788 32.11,33.462c0,20.618 -10.478,33.969 -30.589,33.969c-9.633,0 -12.337,-2.535 -12.337,-13.351l0,-44.109Z"/>

        <path class="wordmark-path wordmark-path-5"
        d="M466.81,90.815c-18.928,0 -42.588,13.013 -42.588,42.926c0,19.942 15.379,39.884 42.419,39.884c20.449,0 41.912,-14.196 41.912,-42.25c0,-22.984 -17.069,-40.56 -41.743,-40.56ZM464.951,96.223c17.576,0 27.716,19.266 27.716,38.532c0,24.336 -11.492,33.631 -24.336,33.631c-16.562,0 -28.223,-15.886 -28.223,-38.532c0,-22.308 11.999,-33.631 24.843,-33.631Z"/>

        <path class="wordmark-path wordmark-path-6"
        d="M555.366,171.428l0,-4.563c-10.985,-0.845 -11.999,-1.69 -11.999,-13.858l0,-41.574c0,-12.337 1.014,-12.844 11.999,-13.858l0,-4.563l-37.518,0l0,4.563c10.816,0.845 11.83,1.521 11.83,13.858l0,41.574c0,12.168 -1.014,13.013 -11.83,13.858l0,4.563l37.518,0Z"/>

        <path class="wordmark-path wordmark-path-7"
        d="M651.696,93.012l-32.786,0l0,4.563c9.802,0.676 12.506,2.028 13.182,7.605c0.507,4.225 0.845,9.633 0.845,21.463l0,21.632l-0.338,0l-47.996,-55.263l-22.815,0l0,4.563c11.492,0.845 14.365,3.38 14.365,17.407l0,22.646c0,11.661 -0.507,17.914 -1.014,21.97c-0.676,5.07 -3.718,6.591 -11.492,7.267l0,4.563l32.955,0l0,-4.563c-9.464,-0.676 -12.506,-2.197 -13.182,-7.436c-0.507,-3.887 -1.014,-10.14 -1.014,-21.801l0,-26.702l0.169,0l51.038,61.347l5.577,0l0,-45.63c0,-11.83 0.338,-17.238 0.845,-21.801c0.676,-5.239 3.718,-6.591 11.661,-7.267l0,-4.563Z"/>

        <path class="wordmark-path wordmark-path-8"
        d="M748.026,59.043c-35.659,0 -56.953,28.223 -56.953,58.643c0,32.617 24.336,56.277 54.925,56.277c30.927,0 56.446,-22.308 56.446,-58.812c0,-33.969 -25.857,-56.108 -54.418,-56.108ZM744.308,65.127c22.308,0 40.898,18.928 40.898,54.587c0,32.448 -16.731,48.165 -35.659,48.165c-23.829,0 -41.236,-23.153 -41.236,-54.925c0,-31.772 17.238,-47.827 35.997,-47.827Z"/>

        <path class="wordmark-path wordmark-path-9"
        d="M891.507,168.555c-3.042,-1.014 -6.422,-2.535 -9.295,-5.577c-2.873,-3.042 -5.07,-5.746 -9.295,-11.83c-3.887,-5.408 -9.126,-14.196 -11.154,-17.576c8.112,-3.042 16.055,-9.295 16.055,-20.28c0,-7.774 -3.718,-13.182 -8.619,-16.224c-5.07,-3.042 -11.323,-4.056 -19.942,-4.056l-37.18,0l0,4.563c10.647,0.845 11.661,1.352 11.661,13.689l0,42.081c0,11.83 -1.014,12.675 -12.168,13.52l0,4.563l37.518,0l0,-4.563c-10.985,-0.845 -11.999,-1.859 -11.999,-13.52l0,-15.717l3.718,0c6.591,0 8.45,1.183 11.492,6.253c2.366,4.225 7.098,12.168 10.816,17.576c5.07,7.267 10.478,10.985 23.998,10.985l3.887,0l0.507,-3.887ZM837.089,132.389l0,-27.547c0,-5.07 0.676,-6.591 7.774,-6.591c9.802,0 18.083,4.901 18.083,17.238c0,5.915 -2.197,11.492 -6.591,14.196c-3.549,2.028 -7.605,2.704 -12.337,2.704l-6.929,0Z"/>

        <path class="wordmark-path wordmark-path-10"
        d="M933.588,171.428l0,-4.563c-10.985,-0.845 -11.999,-1.69 -11.999,-13.858l0,-41.574c0,-12.337 1.014,-12.844 11.999,-13.858l0,-4.563l-37.518,0l0,4.563c10.816,0.845 11.83,1.521 11.83,13.858l0,41.574c0,12.168 -1.014,13.013 -11.83,13.858l0,4.563l37.518,0Z"/>

        <path class="wordmark-path wordmark-path-11"
        d="M1006.6,149.796c-2.197,6.084 -4.394,9.633 -6.422,11.999c-3.042,3.211 -7.436,4.225 -16.055,4.225c-6.929,0 -10.985,-0.338 -13.013,-1.69c-2.028,-1.352 -2.873,-4.394 -2.873,-10.816l0,-19.435l12.337,0c10.14,0 10.985,1.183 12.506,9.802l4.732,0l0,-25.519l-4.732,0c-1.521,8.281 -2.366,9.295 -12.506,9.295l-12.337,0l0,-24.336c0,-4.563 0.338,-4.732 4.732,-4.732l8.957,0c9.126,0 11.83,1.183 14.027,3.887c1.69,2.197 3.042,5.07 4.563,10.309l4.563,-0.338c-0.676,-7.774 -1.183,-16.055 -1.352,-19.435l-60.84,0l0,4.732c10.816,0.676 11.661,1.521 11.661,13.858l0,41.236c0,11.999 -0.845,13.013 -12.844,14.027l0,4.563l65.234,0c1.014,-3.38 3.549,-15.717 4.394,-20.787l-4.732,-0.845Z"/>

        <path class="wordmark-path wordmark-path-12"
        d="M1106.31,93.012l-32.786,0l0,4.563c9.802,0.676 12.506,2.028 13.182,7.605c0.507,4.225 0.845,9.633 0.845,21.463l0,21.632l-0.338,0l-47.996,-55.263l-22.815,0l0,4.563c11.492,0.845 14.365,3.38 14.365,17.407l0,22.646c0,11.661 -0.507,17.914 -1.014,21.97c-0.676,5.07 -3.718,6.591 -11.492,7.267l0,4.563l32.955,0l0,-4.563c-9.464,-0.676 -12.506,-2.197 -13.182,-7.436c-0.507,-3.887 -1.014,-10.14 -1.014,-21.801l0,-26.702l0.169,0l51.038,61.347l5.577,0l0,-45.63c0,-11.83 0.338,-17.238 0.845,-21.801c0.676,-5.239 3.718,-6.591 11.661,-7.267l0,-4.563Z"/>

        <path class="wordmark-path wordmark-path-13"
        d="M1185.06,114.306c-0.845,-7.267 -1.521,-18.928 -1.521,-24.167l-3.549,0c-1.859,2.197 -2.873,2.873 -6.253,2.873l-50.362,0c-3.211,0.169 -4.732,-0.169 -6.591,-2.873l-3.549,0c-0.169,5.915 -1.014,14.703 -1.521,24.505l4.732,0c1.352,-6.253 2.535,-9.464 4.225,-11.999c2.197,-3.042 4.732,-4.225 15.21,-4.225l5.239,0l0,54.418c0,12.168 -1.014,13.013 -12.844,13.858l0,4.732l39.884,0l0,-4.732c-12.168,-0.845 -13.182,-1.69 -13.182,-14.027l0,-54.249l7.436,0c7.436,0 11.154,1.014 13.351,3.718c1.521,2.197 2.873,5.915 4.394,12.506l4.901,-0.338Z"/>

        <path class="wordmark-path wordmark-path-14"
        d="M154.735,37.485c-0.468,-4.524 -0.78,-10.218 -0.858,-13.806l-1.638,0c-1.17,1.482 -1.794,1.95 -3.9,1.95l-30.81,0c-2.184,0 -3.198,-0.156 -4.29,-1.95l-1.56,0c-0.156,4.29 -0.546,9.36 -0.936,14.04l2.262,0c0.936,-3.432 1.56,-5.694 2.496,-7.02c1.014,-1.716 2.574,-2.418 9.048,-2.418l4.836,0l0,38.454c0,6.162 -0.624,6.942 -7.722,7.41l0,2.184l22.308,0l0,-2.184c-7.332,-0.468 -7.956,-1.248 -7.956,-7.41l0,-38.454l5.46,0c5.928,0 7.176,0.624 8.502,2.496c0.858,1.248 1.638,3.198 2.418,6.942l2.34,-0.234Z"/>

        <path class="wordmark-path wordmark-path-15"
        d="M197.947,76.329l0,-2.106c-4.992,-0.468 -5.46,-0.858 -5.46,-6.474l0,-19.032c0,-5.694 0.468,-6.006 5.46,-6.552l0,-2.028l-17.082,0l0,2.106c4.836,0.39 5.304,0.78 5.304,6.474l0,6.942l-18.33,0l0,-6.864c0,-5.85 0.468,-6.084 5.304,-6.552l0,-2.106l-17.316,0l0,2.106c5.226,0.468 5.694,0.78 5.694,6.552l0,18.954c0,5.694 -0.468,6.084 -5.538,6.474l0,2.106l17.082,0l0,-2.106c-4.758,-0.39 -5.226,-0.78 -5.226,-6.474l0,-9.048l18.33,0l0,9.048c0,5.616 -0.468,6.006 -5.46,6.474l0,2.106l17.238,0Z"/>

        <path class="wordmark-path wordmark-path-16"
        d="M230.083,66.345c-1.014,2.808 -2.028,4.446 -2.964,5.538c-1.404,1.482 -3.432,1.95 -7.41,1.95c-3.198,0 -5.07,-0.156 -6.006,-0.78c-0.936,-0.624 -1.326,-2.028 -1.326,-4.992l0,-8.97l5.694,0c4.68,0 5.07,0.546 5.772,4.524l2.184,0l0,-11.778l-2.184,0c-0.702,3.822 -1.092,4.29 -5.772,4.29l-5.694,0l0,-11.232c0,-2.106 0.156,-2.184 2.184,-2.184l4.134,0c4.212,0 5.46,0.546 6.474,1.794c0.78,1.014 1.404,2.34 2.106,4.758l2.106,-0.156c-0.312,-3.588 -0.546,-7.41 -0.624,-8.97l-28.08,0l0,2.184c4.992,0.312 5.382,0.702 5.382,6.396l0,19.032c0,5.538 -0.39,6.006 -5.928,6.474l0,2.106l30.108,0c0.468,-1.56 1.638,-7.254 2.028,-9.594l-2.184,-0.39Z"/>
    </g>
</svg>
